<svg width="32" height="32" viewBox="0 0 32 32" fill="none" xmlns="http://www.w3.org/2000/svg">
<path d="M20.9113 0H11.0887C2.12493 0 0 2.12493 0 11.0887V20.9113C0 29.8751 2.12493 32 11.0887 32H20.9113C29.8751 32 32 29.8751 32 20.9113V11.0887C32 2.12493 29.8541 0 20.9113 0ZM25.8332 22.8273H23.5103C22.6303 22.8273 22.3593 22.1293 20.7763 20.5254C19.4014 19.1924 18.7924 19.0154 18.4534 19.0154C17.9744 19.0154 17.8384 19.1504 17.8384 19.8074V21.9063C17.8384 22.4693 17.6614 22.8073 16.1715 22.8073C13.7076 22.8073 10.9737 21.3173 9.05672 18.5414C6.16581 14.4735 5.37483 11.4266 5.37483 10.7967C5.37483 10.4577 5.50983 10.1407 6.16081 10.1407H8.48873C9.07771 10.1407 9.30171 10.4117 9.5307 11.0417C10.6817 14.3645 12.5986 17.2755 13.3896 17.2755C13.6816 17.2755 13.8166 17.1405 13.8166 16.3955V12.9636C13.7276 11.3806 12.8946 11.2446 12.8946 10.6827C12.8946 10.4117 13.1186 10.1407 13.4776 10.1407H17.1385C17.6334 10.1407 17.8154 10.4117 17.8154 10.9947V15.6245C17.8154 16.1245 18.0394 16.3015 18.1744 16.3015C18.4664 16.3015 18.7164 16.1245 19.2574 15.5825C20.9293 13.7076 22.1273 10.8167 22.1273 10.8167C22.2833 10.4777 22.5543 10.1607 23.1433 10.1607H25.4712C26.1692 10.1607 26.3252 10.5197 26.1692 11.0197C25.8772 12.3736 23.0283 16.3945 23.0283 16.3945C22.7833 16.8005 22.6893 16.9775 23.0283 17.4305C23.2783 17.7694 24.0912 18.4724 24.6322 19.1024C25.6272 20.2324 26.3922 21.1803 26.5962 21.8363C26.8252 22.4873 26.4872 22.8263 25.8302 22.8263L25.8332 22.8273Z" fill="#2B8E53"/>
</svg>
