<svg width="32" height="32" fill="none" xmlns="http://www.w3.org/2000/svg"><path d="M15.996 10.664A5.347 5.347 0 0010.66 16a5.347 5.347 0 005.336 5.336A5.347 5.347 0 0021.33 16a5.347 5.347 0 00-5.335-5.336zM31.998 16c0-2.21.02-4.399-.104-6.604-.124-2.562-.708-4.836-2.581-6.709C27.434.81 25.166.229 22.604.105 20.394-.019 18.205.001 16 .001c-2.21 0-4.4-.02-6.605.104C6.834.23 4.56.814 2.687 2.687.81 4.564.229 6.834.105 9.396-.019 11.605.001 13.794.001 16c0 2.206-.02 4.399.104 6.605.124 2.561.709 4.835 2.582 6.708 1.877 1.877 4.147 2.458 6.708 2.582 2.21.124 4.4.104 6.605.104 2.21 0 4.399.02 6.604-.104 2.562-.124 4.835-.709 6.709-2.582 1.877-1.877 2.457-4.147 2.581-6.708.128-2.206.104-4.396.104-6.605zm-16.002 8.21A8.198 8.198 0 017.786 16a8.198 8.198 0 018.21-8.21 8.198 8.198 0 018.21 8.21 8.198 8.198 0 01-8.21 8.21zM24.54 9.371a1.915 1.915 0 01-1.917-1.918c0-1.06.857-1.917 1.917-1.917a1.915 1.915 0 011.772 2.651 1.916 1.916 0 01-1.772 1.184z" fill="#2B8E53"/></svg>