<svg width="32" height="32" fill="none" xmlns="http://www.w3.org/2000/svg"><path d="M20.911 0H11.09C2.125 0 0 2.125 0 11.089v9.822C0 29.875 2.125 32 11.089 32h9.822C29.875 32 32 29.875 32 20.911V11.09C32 2.125 29.854 0 20.911 0zm4.922 22.827H23.51c-.88 0-1.15-.698-2.734-2.302-1.375-1.333-1.984-1.51-2.323-1.51-.479 0-.615.135-.615.792v2.1c0 .562-.177.9-1.666.9-2.464 0-5.198-1.49-7.115-4.266-2.891-4.068-3.682-7.114-3.682-7.744 0-.34.135-.656.786-.656h2.328c.589 0 .813.27 1.042.9 1.15 3.323 3.068 6.235 3.859 6.235.292 0 .427-.136.427-.88v-3.432c-.09-1.583-.922-1.72-.922-2.281 0-.271.224-.542.583-.542h3.66c.495 0 .677.27.677.854v4.63c0 .5.224.677.36.677.291 0 .541-.177 1.082-.72 1.672-1.874 2.87-4.765 2.87-4.765.156-.34.427-.656 1.016-.656h2.328c.698 0 .854.359.698.859-.292 1.354-3.14 5.375-3.14 5.375-.246.405-.34.582 0 1.035.25.34 1.062 1.042 1.603 1.672.995 1.13 1.76 2.078 1.964 2.734.23.651-.109.99-.766.99l.003.001z" fill="#2B8E53"/></svg>