<svg width="19" height="15" viewBox="0 0 19 15" fill="none" xmlns="http://www.w3.org/2000/svg">
<path d="M18.5 3.89192V12.1154C18.5 12.8804 18.2037 13.6141 17.6762 14.1551C17.1488 14.6961 16.4334 15 15.6875 15H3.3125C2.56658 15 1.85121 14.6961 1.32376 14.1551C0.796316 13.6141 0.5 12.8804 0.5 12.1154V3.89192L9.21425 9.15115C9.30082 9.20352 9.39949 9.23114 9.5 9.23114C9.60051 9.23114 9.69918 9.20352 9.78575 9.15115L18.5 3.89192ZM15.6875 3.57146e-08C16.3795 -0.000111595 17.0473 0.261469 17.5631 0.7347C18.0789 1.20793 18.4064 1.85959 18.4831 2.565L9.5 7.98462L0.516875 2.565C0.593553 1.85959 0.921114 1.20793 1.43689 0.7347C1.95267 0.261469 2.62046 -0.000111595 3.3125 3.57146e-08H15.6875Z" fill="#FF574D"/>
</svg>
