<svg width="18" height="15" viewBox="0 0 18 15" fill="none" xmlns="http://www.w3.org/2000/svg">
<path d="M18 3.89192V12.1154C18 12.8804 17.7037 13.6141 17.1762 14.1551C16.6488 14.6961 15.9334 15 15.1875 15H2.8125C2.06658 15 1.35121 14.6961 0.823762 14.1551C0.296316 13.6141 0 12.8804 0 12.1154V3.89192L8.71425 9.15115C8.80082 9.20352 8.89949 9.23114 9 9.23114C9.10051 9.23114 9.19918 9.20352 9.28575 9.15115L18 3.89192ZM15.1875 3.57146e-08C15.8795 -0.000111595 16.5473 0.261469 17.0631 0.7347C17.5789 1.20793 17.9064 1.85959 17.9831 2.565L9 7.98462L0.0168751 2.565C0.0935531 1.85959 0.421114 1.20793 0.936894 0.7347C1.45267 0.261469 2.12046 -0.000111595 2.8125 3.57146e-08H15.1875Z" fill="#2B8E53"/>
</svg>
