<svg width="25" height="25" viewBox="0 0 25 25" fill="none" xmlns="http://www.w3.org/2000/svg">
<path d="M0.354251 22.9188C-0.118084 23.3911 -0.118084 24.184 0.354251 24.6395C0.826586 25.1118 1.60256 25.1118 2.0749 24.6395L12.5 14.2144L22.9251 24.6395C23.3974 25.1118 24.1734 25.1287 24.6458 24.6395C25.1181 24.1671 25.1181 23.3911 24.6458 22.9188L14.2206 12.4937L24.6458 2.0686C25.1181 1.61314 25.1181 0.820289 24.6458 0.347954C24.1734 -0.107512 23.3974 -0.107512 22.9251 0.347954L12.5 10.7731L2.0749 0.347954C1.60256 -0.107512 0.826586 -0.124381 0.354251 0.347954C-0.118084 0.837158 -0.118084 1.61314 0.354251 2.0686L10.7794 12.4937L0.354251 22.9188Z" fill="#FF574D"/>
</svg>
