<svg width="73" height="15" viewBox="0 0 73 15" fill="none" xmlns="http://www.w3.org/2000/svg">
<path d="M0.441051 14V12.0312L0.81179 12.0121C1.31463 11.9822 1.71307 11.8011 2.0071 11.4688C2.3054 11.1364 2.52486 10.6016 2.66548 9.86435C2.81037 9.12713 2.90625 8.13849 2.95312 6.89844L3.17045 0.909091H11.7486V14H9.42827V2.85866H5.3821L5.17756 7.63352C5.1179 9.06534 4.96023 10.2521 4.70455 11.1939C4.45313 12.1357 4.03977 12.8388 3.46449 13.3033C2.89347 13.7678 2.09872 14 1.08026 14H0.441051ZM18.5146 14.1918C17.5558 14.1918 16.7248 13.9808 16.0217 13.5589C15.3185 13.1371 14.7731 12.5469 14.3853 11.7884C14.0018 11.0298 13.81 10.1435 13.81 9.12926C13.81 8.11506 14.0018 7.22656 14.3853 6.46378C14.7731 5.70099 15.3185 5.10866 16.0217 4.68679C16.7248 4.26491 17.5558 4.05398 18.5146 4.05398C19.4734 4.05398 20.3043 4.26491 21.0075 4.68679C21.7106 5.10866 22.2539 5.70099 22.6374 6.46378C23.0252 7.22656 23.2191 8.11506 23.2191 9.12926C23.2191 10.1435 23.0252 11.0298 22.6374 11.7884C22.2539 12.5469 21.7106 13.1371 21.0075 13.5589C20.3043 13.9808 19.4734 14.1918 18.5146 14.1918ZM18.5273 12.3381C19.0472 12.3381 19.4819 12.1953 19.8313 11.9098C20.1808 11.62 20.4407 11.2322 20.6112 10.7464C20.7859 10.2607 20.8732 9.71946 20.8732 9.12287C20.8732 8.52202 20.7859 7.97869 20.6112 7.4929C20.4407 7.00284 20.1808 6.61293 19.8313 6.32315C19.4819 6.03338 19.0472 5.88849 18.5273 5.88849C17.9947 5.88849 17.5515 6.03338 17.1978 6.32315C16.8484 6.61293 16.5863 7.00284 16.4116 7.4929C16.2411 7.97869 16.1559 8.52202 16.1559 9.12287C16.1559 9.71946 16.2411 10.2607 16.4116 10.7464C16.5863 11.2322 16.8484 11.62 17.1978 11.9098C17.5515 12.1953 17.9947 12.3381 18.5273 12.3381ZM31.6774 4.18182V6.08026H27.4458V14H25.1831V4.18182H31.6774ZM37.411 14.1918C36.4522 14.1918 35.6213 13.9808 34.9181 13.5589C34.215 13.1371 33.6696 12.5469 33.2818 11.7884C32.8983 11.0298 32.7065 10.1435 32.7065 9.12926C32.7065 8.11506 32.8983 7.22656 33.2818 6.46378C33.6696 5.70099 34.215 5.10866 34.9181 4.68679C35.6213 4.26491 36.4522 4.05398 37.411 4.05398C38.3699 4.05398 39.2008 4.26491 39.9039 4.68679C40.6071 5.10866 41.1504 5.70099 41.5339 6.46378C41.9217 7.22656 42.1156 8.11506 42.1156 9.12926C42.1156 10.1435 41.9217 11.0298 41.5339 11.7884C41.1504 12.5469 40.6071 13.1371 39.9039 13.5589C39.2008 13.9808 38.3699 14.1918 37.411 14.1918ZM37.4238 12.3381C37.9437 12.3381 38.3784 12.1953 38.7278 11.9098C39.0772 11.62 39.3372 11.2322 39.5076 10.7464C39.6824 10.2607 39.7697 9.71946 39.7697 9.12287C39.7697 8.52202 39.6824 7.97869 39.5076 7.4929C39.3372 7.00284 39.0772 6.61293 38.7278 6.32315C38.3784 6.03338 37.9437 5.88849 37.4238 5.88849C36.8912 5.88849 36.448 6.03338 36.0943 6.32315C35.7449 6.61293 35.4828 7.00284 35.3081 7.4929C35.1376 7.97869 35.0524 8.52202 35.0524 9.12287C35.0524 9.71946 35.1376 10.2607 35.3081 10.7464C35.4828 11.2322 35.7449 11.62 36.0943 11.9098C36.448 12.1953 36.8912 12.3381 37.4238 12.3381ZM42.9977 6.08026V4.18182H51.5886V6.08026H48.4118V14H46.1745V6.08026H42.9977ZM55.6619 10.8679L59.593 4.18182H61.9709V14H59.7337V7.30753L55.8153 14H53.4311V4.18182H55.6619V10.8679ZM64.3471 14V4.18182H72.6376V14H70.4068V6.08026H66.5588V14H64.3471Z" fill="white"/>
</svg>
