<svg width="14" height="20" viewBox="0 0 14 20" fill="none" xmlns="http://www.w3.org/2000/svg">
<path d="M13.6478 4.95652C13.6184 4.86957 13.5671 4.73188 13.4937 4.54348C13.4203 4.35507 13.369 4.23188 13.3396 4.17391C12.7233 2.75362 11.8208 1.7029 10.6321 1.02174C9.4434 0.34058 8.20335 0 6.91195 0C5.23899 0 3.72746 0.543478 2.37736 1.63043C1.02725 2.71739 0.234801 4.24638 0 6.21739V7.04348L0.0440252 7.26087V7.56522C0.102725 8.02899 0.256813 8.55797 0.506289 9.15217C0.755765 9.74638 0.983229 10.2246 1.18868 10.587C1.39413 10.9493 1.72432 11.5 2.17925 12.2391C2.63417 12.9783 2.93501 13.4638 3.08176 13.6957C3.93291 15.1159 5.23899 17.2174 7 20C7.2348 19.6232 8.04193 18.2609 9.42138 15.913C9.48008 15.8261 9.59015 15.6522 9.75157 15.3913C9.913 15.1304 10.0231 14.9275 10.0818 14.7826C10.1405 14.6957 10.2358 14.5725 10.3679 14.413C10.5 14.2536 10.5954 14.1304 10.6541 14.0435C10.8595 13.6667 11.3071 12.9493 11.9969 11.8913C12.6866 10.8333 13.1929 9.94203 13.5157 9.21739C13.8386 8.49275 14 7.78261 14 7.08696V6.13043C14 5.81159 13.8826 5.42029 13.6478 4.95652ZM6.95597 9.26087C5.81132 9.26087 5.01887 8.71014 4.57862 7.6087C4.54927 7.46377 4.53459 7.24638 4.53459 6.95652V6.3913C4.53459 5.66667 4.78407 5.1087 5.28302 4.71739C5.78197 4.32609 6.36897 4.13043 7.04402 4.13043C7.77778 4.13043 8.38679 4.37681 8.87107 4.86957C9.35535 5.36232 9.59748 5.97101 9.59748 6.69565C9.59748 7.42029 9.34067 8.02899 8.82704 8.52174C8.31342 9.01449 7.68973 9.26087 6.95597 9.26087Z" fill="#FF574D"/>
</svg>
