<svg width="18" height="18" viewBox="0 0 18 18" fill="none" xmlns="http://www.w3.org/2000/svg">
<path d="M17.7499 14.9676L15.2121 17.4851C14.8375 17.8693 14.3409 17.9994 13.8573 18C11.7188 17.9359 9.69735 16.8854 8.03763 15.8068C5.3133 13.8248 2.81361 11.3673 1.24476 8.39748C0.643053 7.15213 -0.0629673 5.56317 0.0044877 4.17313C0.0105027 3.65023 0.151413 3.13704 0.519678 2.79999L3.05747 0.263473C3.58445 -0.184772 4.09407 -0.0297921 4.4313 0.492328L6.47297 4.36386C6.68786 4.82251 6.56459 5.31394 6.24398 5.64168L5.309 6.57618C5.25128 6.65524 5.21453 6.74524 5.2136 6.84319C5.57213 8.23102 6.65829 9.51018 7.61781 10.3905C8.57732 11.2708 9.60869 12.4635 10.9475 12.7458C11.1129 12.792 11.3156 12.8082 11.434 12.6981L12.5217 11.592C12.8966 11.3078 13.438 11.1689 13.8383 11.4013H13.8573L17.54 13.5754C18.0806 13.9143 18.137 14.5692 17.7499 14.9676Z" fill="#FF574D"/>
</svg>
