<svg width="59" height="58" viewBox="0 0 59 58" fill="none" xmlns="http://www.w3.org/2000/svg">
<path d="M56.7313 0.80337C56.1831 0.446933 55.5701 0.202188 54.9274 0.0831185C54.2847 -0.0359513 53.6248 -0.0270135 52.9856 0.109421C52.3463 0.245856 51.7402 0.507114 51.2017 0.878272C50.6633 1.24943 50.2031 1.72321 49.8476 2.27256L21.9574 45.336L8.3558 32.7382C7.87592 32.2938 7.31334 31.9483 6.70018 31.7216C6.08702 31.495 5.4353 31.3915 4.78221 31.4171C3.46325 31.4688 2.21883 32.0433 1.32271 33.0141C0.426585 33.9849 -0.0478349 35.2726 0.00381582 36.5938C0.0554666 37.915 0.628957 39.1616 1.59813 40.0592L19.4571 56.5992C19.4571 56.5992 19.9698 57.0413 20.207 57.1959C20.7553 57.5526 21.3685 57.7975 22.0113 57.9167C22.6542 58.0359 23.3142 58.0271 23.9537 57.8906C24.5931 57.7542 25.1995 57.4928 25.7381 57.1215C26.2766 56.7502 26.7369 56.2763 27.0925 55.7267L58.198 7.69891C58.5538 7.14972 58.7982 6.53568 58.917 5.89188C59.0359 5.24807 59.027 4.58712 58.8908 3.94677C58.7546 3.30642 58.4938 2.69923 58.1232 2.15987C57.7527 1.62052 57.2797 1.15957 56.7313 0.80337Z" fill="white"/>
</svg>
