<svg width="73" height="15" fill="none" xmlns="http://www.w3.org/2000/svg"><path d="M.441 14v-1.969l.37-.019c.504-.03.902-.21 1.196-.543.298-.333.518-.867.658-1.605.145-.737.241-1.726.288-2.966L3.17.91h8.579V14h-2.32V2.859H5.381l-.204 4.775c-.06 1.431-.218 2.618-.473 3.56-.252.942-.665 1.645-1.24 2.11-.572.464-1.366.696-2.385.696H.441zm18.074.192c-.96 0-1.79-.211-2.493-.633a4.296 4.296 0 01-1.637-1.77c-.383-.76-.575-1.646-.575-2.66 0-1.014.192-1.902.575-2.665a4.288 4.288 0 011.637-1.777c.703-.422 1.534-.633 2.493-.633.958 0 1.79.21 2.492.633a4.246 4.246 0 011.63 1.777c.388.763.582 1.651.582 2.665s-.194 1.9-.582 2.66a4.254 4.254 0 01-1.63 1.77c-.703.422-1.534.633-2.492.633zm.012-1.854c.52 0 .955-.143 1.304-.428.35-.29.61-.678.78-1.164a4.77 4.77 0 00.262-1.623c0-.601-.087-1.144-.262-1.63-.17-.49-.43-.88-.78-1.17-.35-.29-.784-.435-1.304-.435-.532 0-.976.145-1.33.435-.349.29-.61.68-.785 1.17a4.899 4.899 0 00-.256 1.63c0 .596.085 1.138.256 1.623.174.486.436.874.786 1.164.354.285.797.428 1.33.428zm13.15-8.156V6.08h-4.231V14h-2.263V4.182h6.494zm5.734 10.01c-.959 0-1.79-.211-2.493-.633a4.297 4.297 0 01-1.636-1.77c-.384-.76-.575-1.646-.575-2.66 0-1.014.191-1.902.575-2.665a4.288 4.288 0 011.636-1.777c.703-.422 1.534-.633 2.493-.633.959 0 1.79.21 2.493.633a4.246 4.246 0 011.63 1.777c.388.763.582 1.651.582 2.665s-.194 1.9-.582 2.66a4.254 4.254 0 01-1.63 1.77c-.703.422-1.534.633-2.493.633zm.013-1.854c.52 0 .954-.143 1.304-.428.35-.29.61-.678.78-1.164a4.768 4.768 0 00.262-1.623c0-.601-.088-1.144-.262-1.63-.17-.49-.43-.88-.78-1.17-.35-.29-.784-.435-1.304-.435-.533 0-.976.145-1.33.435-.35.29-.611.68-.786 1.17a4.899 4.899 0 00-.256 1.63c0 .596.086 1.138.256 1.623.175.486.437.874.786 1.164.354.285.797.428 1.33.428zm5.574-6.258V4.182h8.59V6.08h-3.176V14h-2.237V6.08h-3.177zm12.664 4.788l3.931-6.686h2.378V14h-2.237V7.308L55.815 14h-2.384V4.182h2.23v6.686zM64.347 14V4.182h8.29V14h-2.23V6.08h-3.848V14h-2.212z" fill="#fff"/></svg>