<svg width="14" height="20" fill="none" xmlns="http://www.w3.org/2000/svg"><path d="M13.648 4.957a10.847 10.847 0 00-.308-.783c-.617-1.42-1.52-2.471-2.708-3.152C9.443.34 8.203 0 6.912 0 5.239 0 3.727.543 2.377 1.63 1.027 2.717.235 4.246 0 6.217v.826l.044.218v.304c.059.464.213.993.462 1.587.25.594.477 1.073.683 1.435.205.362.535.913.99 1.652.455.74.756 1.225.903 1.457C3.932 15.116 5.239 17.217 7 20c.235-.377 1.042-1.74 2.421-4.087.06-.087.17-.26.33-.522.162-.26.272-.463.33-.608.06-.087.155-.21.287-.37a5.2 5.2 0 00.286-.37c.206-.376.653-1.094 1.343-2.152s1.196-1.949 1.519-2.674c.323-.724.484-1.434.484-2.13V6.13c0-.318-.117-.71-.352-1.173zM6.956 9.26c-1.145 0-1.937-.55-2.377-1.652a3.558 3.558 0 01-.044-.652V6.39c0-.724.25-1.282.748-1.674.499-.39 1.086-.587 1.761-.587.734 0 1.343.247 1.827.74.484.492.726 1.101.726 1.826 0 .724-.256 1.333-.77 1.826-.514.492-1.137.739-1.871.739z" fill="#FF574D"/></svg>