<svg width="18" height="18" fill="none" xmlns="http://www.w3.org/2000/svg"><path d="M17.75 14.968l-2.538 2.517c-.374.384-.871.514-1.355.515-2.138-.064-4.16-1.115-5.82-2.193-2.724-1.982-5.223-4.44-6.792-7.41C.643 7.152-.063 5.563.005 4.173.01 3.65.15 3.137.52 2.8L3.057.263c.527-.448 1.037-.293 1.374.23l2.042 3.87c.215.46.092.95-.229 1.279l-.935.934a.46.46 0 00-.095.267c.358 1.388 1.444 2.667 2.404 3.547.96.88 1.99 2.073 3.33 2.356.165.046.368.062.486-.048l1.088-1.106c.375-.284.916-.423 1.316-.19h.02l3.682 2.173c.54.34.597.994.21 1.393z" fill="#FF574D"/></svg>