<svg xmlns="http://www.w3.org/2000/svg" xmlns:xlink="http://www.w3.org/1999/xlink"><symbol id="arrow-forward" viewBox="0 0 49 16"><g fill="none">
<path d="M48.7071 7.29289C49.0976 7.68342 49.0976 8.31658 48.7071 8.70711L42.3431 15.0711C41.9526 15.4616 41.3195 15.4616 40.9289 15.0711C40.5384 14.6805 40.5384 14.0474 40.9289 13.6569L46.5858 8L40.9289 2.34315C40.5384 1.95262 40.5384 1.31946 40.9289 0.928932C41.3195 0.538408 41.9526 0.538408 42.3431 0.928932L48.7071 7.29289ZM0 7H48V9H0V7Z" fill="currentColor"/>
</g></symbol><symbol id="arrow" viewBox="0 0 12 8"><g fill="none">
<path d="M1 1.5L6 6.5L11 1.5" stroke="#2B8E53" stroke-width="2" stroke-linecap="round" stroke-linejoin="round"/>
</g></symbol><symbol id="icon-fb" viewBox="0 0 32 32"><g fill="none">
<path d="M5.84301 0C2.60624 0 0 2.60624 0 5.84301V26.157C0 29.3938 2.60624 32 5.84301 32H16.853V19.49H13.545V14.986H16.853V11.138C16.853 8.11482 18.8076 5.33901 23.31 5.33901C25.133 5.33901 26.481 5.51402 26.481 5.51402L26.375 9.72003C26.375 9.72003 25.0002 9.70704 23.5 9.70704C21.8764 9.70704 21.616 10.4551 21.616 11.6971V14.986H26.504L26.291 19.49H21.616V32.0001H26.157C29.3938 32.0001 32 29.3938 32 26.1571V5.84304C32 2.60627 29.3938 3.2e-05 26.157 3.2e-05L5.84301 0Z" fill="#2B8E53"/>
</g></symbol><symbol id="icon-insta" viewBox="0 0 32 32"><g fill="none">
<path d="M15.9957 10.6644C13.0578 10.6644 10.6602 13.062 10.6602 16C10.6602 18.938 13.0578 21.3356 15.9957 21.3356C18.9336 21.3356 21.3312 18.938 21.3312 16C21.3312 13.062 18.9336 10.6644 15.9957 10.6644ZM31.9982 16C31.9982 13.7905 32.0182 11.601 31.8941 9.39554C31.7701 6.83381 31.1857 4.56027 29.3125 2.687C27.4352 0.809736 25.1657 0.229345 22.604 0.105261C20.3946 -0.018823 18.2052 0.00119058 15.9997 0.00119058C13.7902 0.00119058 11.6008 -0.018823 9.39536 0.105261C6.83368 0.229345 4.56019 0.813739 2.68696 2.687C0.809722 4.56427 0.22934 6.83381 0.105259 9.39554C-0.0188226 11.605 0.00119056 13.7945 0.00119056 16C0.00119056 18.2055 -0.0188226 20.399 0.105259 22.6045C0.22934 25.1662 0.813725 27.4397 2.68696 29.313C4.56419 31.1903 6.83368 31.7707 9.39536 31.8947C11.6048 32.0188 13.7943 31.9988 15.9997 31.9988C18.2092 31.9988 20.3986 32.0188 22.604 31.8947C25.1657 31.7707 27.4392 31.1863 29.3125 29.313C31.1897 27.4357 31.7701 25.1662 31.8941 22.6045C32.0222 20.399 31.9982 18.2095 31.9982 16ZM15.9957 24.2095C11.4527 24.2095 7.78631 20.5431 7.78631 16C7.78631 11.4569 11.4527 7.79045 15.9957 7.79045C20.5387 7.79045 24.2051 11.4569 24.2051 16C24.2051 20.5431 20.5387 24.2095 15.9957 24.2095ZM24.5413 9.37152C23.4806 9.37152 22.6241 8.51494 22.6241 7.45423C22.6241 6.39351 23.4806 5.53693 24.5413 5.53693C25.602 5.53693 26.4586 6.39351 26.4586 7.45423C26.4589 7.7061 26.4095 7.95556 26.3133 8.18832C26.217 8.42108 26.0758 8.63256 25.8977 8.81066C25.7196 8.98876 25.5082 9.12998 25.2754 9.22622C25.0426 9.32246 24.7932 9.37184 24.5413 9.37152Z" fill="#2B8E53"/>
</g></symbol><symbol id="icon-vk" viewBox="0 0 32 32"><g fill="none">
<path d="M20.9113 0H11.0887C2.12493 0 0 2.12493 0 11.0887V20.9113C0 29.8751 2.12493 32 11.0887 32H20.9113C29.8751 32 32 29.8751 32 20.9113V11.0887C32 2.12493 29.8541 0 20.9113 0ZM25.8332 22.8273H23.5103C22.6303 22.8273 22.3593 22.1293 20.7763 20.5254C19.4014 19.1924 18.7924 19.0154 18.4534 19.0154C17.9744 19.0154 17.8384 19.1504 17.8384 19.8074V21.9063C17.8384 22.4693 17.6614 22.8073 16.1715 22.8073C13.7076 22.8073 10.9737 21.3173 9.05672 18.5414C6.16581 14.4735 5.37483 11.4266 5.37483 10.7967C5.37483 10.4577 5.50983 10.1407 6.16081 10.1407H8.48873C9.07771 10.1407 9.30171 10.4117 9.5307 11.0417C10.6817 14.3645 12.5986 17.2755 13.3896 17.2755C13.6816 17.2755 13.8166 17.1405 13.8166 16.3955V12.9636C13.7276 11.3806 12.8946 11.2446 12.8946 10.6827C12.8946 10.4117 13.1186 10.1407 13.4776 10.1407H17.1385C17.6334 10.1407 17.8154 10.4117 17.8154 10.9947V15.6245C17.8154 16.1245 18.0394 16.3015 18.1744 16.3015C18.4664 16.3015 18.7164 16.1245 19.2574 15.5825C20.9293 13.7076 22.1273 10.8167 22.1273 10.8167C22.2833 10.4777 22.5543 10.1607 23.1433 10.1607H25.4712C26.1692 10.1607 26.3252 10.5197 26.1692 11.0197C25.8772 12.3736 23.0283 16.3945 23.0283 16.3945C22.7833 16.8005 22.6893 16.9775 23.0283 17.4305C23.2783 17.7694 24.0912 18.4724 24.6322 19.1024C25.6272 20.2324 26.3922 21.1803 26.5962 21.8363C26.8252 22.4873 26.4872 22.8263 25.8302 22.8263L25.8332 22.8273Z" fill="#2B8E53"/>
</g></symbol></svg>